<?xml version="1.0" standalone="no"?>
<!DOCTYPE svg PUBLIC "-//W3C//DTD SVG 20010904//EN"
 "http://www.w3.org/TR/2001/REC-SVG-20010904/DTD/svg10.dtd">
<svg version="1.0" xmlns="http://www.w3.org/2000/svg"
 width="298.000000pt" height="338.000000pt" viewBox="0 0 298.000000 338.000000"
 preserveAspectRatio="xMidYMid meet">

<g transform="translate(0.000000,338.000000) scale(0.100000,-0.100000)"
fill="#000000" stroke="none">
<path d="M2440 3323 c0 -32 -2 -106 -5 -165 -6 -157 -37 -219 -148 -290 l-48
-31 -23 22 c-12 11 -27 21 -34 21 -6 0 -15 6 -19 13 -13 20 -144 94 -228 127
-11 4 -33 13 -50 20 -156 65 -432 76 -620 26 -181 -48 -336 -138 -474 -275
-86 -84 -124 -134 -175 -229 -32 -59 -46 -76 -61 -75 -27 3 -69 11 -72 13 -2
2 -6 3 -10 4 -5 1 -23 6 -40 10 -18 4 -33 12 -33 17 0 5 -6 9 -14 9 -26 0 -84
78 -136 182 -28 56 -52 110 -54 118 -6 32 -19 50 -35 50 -13 0 -18 -11 -21
-42 -10 -102 -1 -318 13 -318 5 0 6 -4 3 -9 -8 -12 49 -120 82 -154 34 -36
131 -82 210 -101 83 -19 95 -30 74 -63 -8 -13 -197 -47 -211 -38 -5 3 -14 -3
-20 -12 -6 -10 -11 -14 -11 -9 0 5 -7 3 -15 -4 -8 -7 -15 -10 -15 -7 0 14
-236 -120 -244 -140 -3 -6 20 -31 51 -55 30 -23 60 -47 67 -53 6 -5 18 -11 26
-13 8 -2 22 -10 31 -18 8 -8 21 -14 28 -14 7 0 27 -7 45 -15 41 -20 46 -58 12
-90 -39 -36 -41 -77 -10 -205 14 -63 32 -142 38 -175 18 -87 61 -165 93 -165
7 0 13 8 13 18 0 9 9 -1 19 -23 10 -22 35 -57 57 -78 57 -55 122 -69 221 -46
71 16 123 30 139 36 19 7 18 -31 -1 -47 -8 -7 -15 -24 -15 -39 0 -14 -7 -46
-16 -70 -21 -60 -21 -150 0 -191 9 -18 16 -39 16 -45 0 -7 6 -15 13 -18 15 -6
52 -67 40 -67 -4 0 -17 14 -28 31 -24 37 -50 52 -75 44 -22 -7 -29 -26 -41
-110 -16 -107 -18 -115 -43 -139 -43 -39 -48 -68 -19 -104 13 -18 31 -32 39
-32 8 0 14 -4 14 -9 0 -5 13 -14 29 -21 16 -6 37 -19 47 -28 11 -9 33 -24 49
-32 17 -8 52 -27 78 -42 26 -16 52 -28 58 -28 8 0 86 -28 194 -70 42 -16 152
-42 260 -61 80 -14 429 -18 520 -6 33 5 82 15 110 24 27 8 79 24 115 35 36 11
72 22 80 25 8 3 20 7 26 8 33 7 252 125 301 161 17 13 36 24 42 24 6 0 11 4
11 8 0 4 15 16 33 26 47 28 244 234 262 275 9 20 20 44 26 54 7 13 5 24 -11
44 -11 14 -20 31 -20 38 0 12 -44 50 -117 99 -23 15 -48 41 -55 57 -7 16 -16
29 -19 29 -4 0 -12 14 -19 31 -11 25 -18 30 -37 26 -26 -5 -29 6 -13 48 5 14
12 37 14 51 7 40 -27 135 -62 172 -17 18 -43 46 -58 63 -15 16 -35 29 -45 29
-30 0 -49 -11 -49 -30 0 -44 -66 -200 -84 -200 -7 0 -31 18 -53 40 -42 40 -63
88 -63 143 0 29 -32 101 -50 112 -5 3 -10 24 -10 45 0 40 21 68 101 133 37 30
43 48 43 137 0 67 -5 96 -27 136 -9 17 -13 34 -10 38 4 3 1 6 -6 6 -7 0 -9 5
-6 10 3 6 0 10 -7 10 -9 0 -9 3 2 10 13 9 13 10 0 10 -14 0 -148 195 -185 269
-9 19 -18 59 -20 90 -3 69 20 128 70 177 25 24 34 39 27 47 -6 9 10 22 57 45
35 18 62 29 58 26 -4 -4 1 -13 11 -20 16 -12 16 -14 -3 -28 -11 -8 -31 -21
-45 -28 -14 -7 -31 -18 -37 -25 -15 -13 -17 -33 -4 -33 14 0 65 -83 65 -107 0
-13 4 -23 8 -23 4 0 8 -4 8 -10 0 -5 11 -33 25 -62 30 -65 47 -120 70 -218 9
-41 23 -97 30 -125 20 -75 39 -295 32 -386 -5 -78 -5 -79 20 -86 15 -3 34 -1
44 6 10 6 39 11 63 11 25 0 47 4 50 9 3 5 33 12 66 16 112 13 200 96 200 188
0 40 3 48 15 43 9 -3 21 4 31 20 14 21 16 41 10 125 -3 55 -10 107 -15 117
-10 17 -30 115 -38 181 -8 67 -60 134 -87 112 -12 -10 -15 -6 -21 21 -4 18
-12 38 -17 45 -6 8 4 26 34 57 24 26 60 74 80 109 21 34 42 68 48 75 6 6 8 12
4 12 -3 0 -1 6 5 14 20 24 -95 47 -239 47 -91 0 -102 -2 -194 -25 -33 -8 -63
-13 -68 -10 -4 3 -8 0 -8 -6 0 -6 -4 -9 -9 -5 -5 3 -12 1 -16 -5 -10 -16 -45
8 -45 30 0 21 32 44 45 32 5 -4 5 -2 1 5 -3 6 1 16 10 21 33 19 127 119 147
157 31 61 34 154 8 256 -32 127 -110 279 -143 279 -4 0 -8 -26 -8 -57z m-764
-398 c69 -11 186 -50 230 -76 17 -11 36 -19 42 -19 5 0 35 -17 67 -37 l56 -37
-40 -12 c-70 -20 -127 -25 -172 -14 -145 35 -227 31 -486 -26 -71 -16 -85 -27
-87 -69 -2 -20 -29 -75 -37 -75 -5 0 -9 -5 -9 -12 0 -6 -22 -35 -50 -64 -45
-47 -50 -57 -49 -96 1 -40 15 -105 18 -83 1 6 8 -1 16 -15 30 -51 9 -263 -29
-310 -7 -8 -16 -23 -19 -32 -6 -17 -87 -65 -87 -51 0 4 -5 2 -12 -5 -7 -7 -19
-12 -27 -12 -44 0 -171 -82 -171 -110 0 -5 -4 -10 -9 -10 -5 0 -11 -10 -15
-22 -3 -13 -16 -39 -28 -58 l-22 -35 -7 50 c-21 145 -33 381 -20 389 5 4 9 23
7 44 -1 30 -6 38 -24 40 -12 2 -22 7 -22 11 0 5 -11 6 -24 4 -32 -6 -67 13
-59 33 3 8 15 14 27 13 11 0 44 -1 73 0 l51 1 17 50 c9 28 21 50 26 50 6 0 8
4 5 9 -4 5 -3 11 1 13 5 1 17 20 27 41 11 20 35 53 53 72 19 19 31 36 28 36
-19 5 -31 5 -40 0 -26 -14 -109 -26 -103 -15 24 52 35 70 45 77 7 4 13 14 13
21 0 17 167 176 210 201 19 10 57 32 83 47 27 15 58 30 70 34 12 3 49 16 82
29 99 39 265 51 401 30z m1201 -977 c-3 -8 -6 -5 -6 6 -1 11 2 17 5 13 3 -3 4
-12 1 -19z m-656 -22 c8 -18 7 -31 -5 -53 -22 -44 -66 -93 -82 -93 -8 0 -14
-5 -14 -10 0 -5 -3 -9 -7 -8 -5 1 -21 -4 -36 -10 -31 -13 -139 -16 -151 -5 -3
4 -16 8 -27 10 -33 5 -79 42 -79 64 0 10 6 19 13 20 9 0 9 2 -1 6 -10 4 -10 8
-1 19 16 20 46 17 86 -7 43 -27 118 -30 154 -6 15 10 39 35 53 56 33 47 80 55
97 17z m686 -128 c2 -17 0 -19 -7 -8 -5 8 -6 18 -4 22 8 12 10 10 11 -14z
m-1539 -80 c2 -22 -1 -38 -7 -38 -6 0 -11 -6 -11 -14 0 -19 -62 -72 -108 -92
-56 -25 -148 -22 -202 6 -62 32 -80 49 -80 75 0 47 58 57 114 20 37 -25 110
-23 156 2 19 11 35 24 35 29 1 5 6 19 14 32 10 19 19 23 49 20 35 -3 37 -5 40
-40z m-1060 -63 c-3 -3 -9 2 -12 12 -6 14 -5 15 5 6 7 -7 10 -15 7 -18z m19
-97 c-3 -7 -5 -2 -5 12 0 14 2 19 5 13 2 -7 2 -19 0 -25z m43 -156 c0 -15 -2
-15 -10 -2 -13 20 -13 33 0 25 6 -3 10 -14 10 -23z m1815 -171 c22 -10 46 -25
53 -34 14 -17 82 -210 82 -234 0 -7 9 -39 20 -70 24 -68 26 -122 5 -149 -8
-10 -15 -14 -15 -9 0 6 -6 -1 -13 -15 -12 -24 -36 -33 -139 -55 -18 -3 -28
-12 -28 -23 0 -21 -82 -109 -135 -145 -81 -54 -202 -72 -295 -43 -96 30 -150
62 -133 79 9 9 -1 9 -77 -4 -105 -18 -112 -18 -144 -5 -63 27 -77 65 -92 246
-12 161 -13 223 -1 244 22 38 62 66 117 82 80 22 81 24 16 19 -55 -5 -63 -8
-109 -55 l-49 -50 6 -135 c3 -79 2 -135 -4 -135 -13 0 -152 116 -175 146 -11
15 -29 36 -41 48 -11 12 -35 44 -54 71 -18 28 -44 62 -58 78 -29 30 -12 38 19
8 11 -10 34 -21 50 -23 24 -4 35 1 54 26 47 60 56 68 73 61 9 -4 22 -8 27 -9
6 -1 15 -5 20 -8 14 -8 52 -4 88 11 15 6 27 9 27 7 0 -2 14 9 31 25 17 16 35
26 40 23 5 -3 9 0 9 5 0 6 3 10 8 9 4 -1 17 1 30 6 32 11 123 -18 152 -49 13
-14 22 -25 19 -26 -2 0 -11 -2 -19 -5 -8 -2 -30 -7 -47 -10 -18 -4 -33 -10
-33 -15 0 -5 6 -6 13 -4 6 2 23 6 37 9 14 2 52 11 85 20 33 9 98 23 145 31 47
9 146 29 220 44 164 35 165 35 215 12z m-1280 -621 c3 -5 1 -10 -4 -10 -6 0
-11 5 -11 10 0 6 2 10 4 10 3 0 8 -4 11 -10z m30 -20 c3 -5 1 -10 -4 -10 -6 0
-11 5 -11 10 0 6 2 10 4 10 3 0 8 -4 11 -10z"/>
<path d="M2073 1018 c-62 -31 -47 -131 22 -144 50 -9 89 19 93 68 5 62 -59
105 -115 76z"/>
<path d="M1439 871 c-26 -27 -30 -37 -25 -64 18 -94 156 -85 156 10 0 40 -27
71 -67 79 -27 5 -37 1 -64 -25z"/>
<path d="M2108 643 c7 -3 16 -2 19 1 4 3 -2 6 -13 5 -11 0 -14 -3 -6 -6z"/>
<path d="M2058 633 c7 -3 16 -2 19 1 4 3 -2 6 -13 5 -11 0 -14 -3 -6 -6z"/>
<path d="M1868 593 c7 -3 16 -2 19 1 4 3 -2 6 -13 5 -11 0 -14 -3 -6 -6z"/>
<path d="M1668 553 c7 -3 16 -2 19 1 4 3 -2 6 -13 5 -11 0 -14 -3 -6 -6z"/>
</g>
</svg>
