<?xml version="1.0" standalone="no"?>
<!DOCTYPE svg PUBLIC "-//W3C//DTD SVG 20010904//EN"
 "http://www.w3.org/TR/2001/REC-SVG-20010904/DTD/svg10.dtd">
<svg version="1.0" xmlns="http://www.w3.org/2000/svg"
 width="792.000000pt" height="661.000000pt" viewBox="0 0 792.000000 661.000000"
 preserveAspectRatio="xMidYMid meet">
<metadata>
Created by potrace 1.16, written by Peter Selinger 2001-2019
</metadata>
<g transform="translate(0.000000,661.000000) scale(0.100000,-0.100000)"
fill="#000000" stroke="none">
<path d="M4075 6590 c-203 -46 -430 -165 -643 -337 -306 -248 -517 -641 -659
-1226 l-38 -158 -105 6 c-250 15 -482 49 -749 111 -118 27 -170 35 -212 31
-103 -9 -278 -116 -402 -246 -72 -76 -96 -121 -73 -140 13 -10 195 -54 316
-75 248 -45 327 -51 675 -50 187 0 370 5 408 10 37 6 67 8 67 5 0 -3 -13 -80
-30 -171 -46 -255 -93 -577 -170 -1153 -121 -908 -184 -1296 -251 -1557 -31
-119 -94 -315 -108 -338 -6 -11 -42 -5 -172 27 -90 22 -216 48 -279 58 -157
23 -430 23 -565 -1 -430 -77 -834 -351 -1015 -689 -51 -96 -70 -165 -70 -257
0 -136 63 -227 209 -304 111 -58 196 -78 366 -83 177 -6 317 14 510 72 376
113 694 286 959 519 l68 60 72 -26 c39 -15 168 -63 286 -108 802 -304 1506
-472 2290 -546 228 -21 837 -30 1070 -15 482 31 946 103 1389 217 357 91 411
114 546 231 119 103 172 185 140 217 -25 25 -81 19 -217 -19 -405 -117 -791
-190 -1223 -232 -252 -24 -856 -24 -1115 1 -796 74 -1552 251 -2410 564 -217
79 -463 171 -467 176 -2 1 15 36 38 77 172 313 302 703 398 1199 39 204 88
528 156 1050 64 484 103 762 142 1000 l27 166 110 39 c226 79 511 239 716 402
309 245 586 627 661 913 32 120 32 272 0 352 -43 110 -151 197 -286 233 -81
21 -257 18 -360 -5z m-95 -430 c139 -37 211 -203 166 -380 -51 -201 -257 -491
-454 -640 -101 -76 -334 -190 -387 -190 -18 0 -21 -19 44 250 107 435 227 761
335 907 l45 62 63 4 c75 5 138 1 188 -13z m-2855 -5155 c268 -54 685 -173 685
-196 0 -16 -185 -181 -238 -212 -222 -130 -551 -179 -744 -111 -101 35 -182
106 -220 192 -25 56 -21 107 15 186 29 62 117 162 150 170 48 11 229 -4 352
-29z"/>
</g>
</svg>
