<?xml version="1.0" encoding="UTF-8"?>
<svg id="Ebene_2" data-name="Ebene 2" xmlns="http://www.w3.org/2000/svg" viewBox="0 0 75.23 78.74">
  <defs>
    <style>
      .cls-1 {
        fill-rule: evenodd;
      }
    </style>
  </defs>
  <g id="Layer_2" data-name="Layer 2">
    <path class="cls-1" d="m18.33,44.24l4.63,16.79,12.34,8.07,2.13-10.15-6-5.89-13.1-8.82h0Zm35.17,34.5c-.12,0-.23-.06-.3-.14l-1.96-2.17h0s-6.48-7.75-6.48-7.75l-9.05,1.41-1.82,1.29,10.71,3.08h0c.08.03.16.08.21.15.01.02.03.04.04.07l1.68,3.47c.03.06.05.12.05.19,0,.21-.17.39-.39.39h-27.57c-.13,0-.24-.06-.31-.16l-1.28-1.44c-.09-.08-.13-.21-.12-.34l.31-2.07-2.44-.42h0c-.09-.01-.17-.06-.23-.13l-4.47-5.24-.87,3.41h0s0,.02,0,.02v.04s-.01,0-.01,0h0s0,.02,0,.02h0s0,0,0,0h0s0,.02,0,.02h0s0,0,0,0h0s0,0,0,0h0s0,0,0,0h0s0,0,0,0h0s0,.02,0,.02c-.01.02-.03.04-.05.06h0s-.04.04-.07.05h0s-.04.02-.05.03h0s0,0,0,0h-.03s0,.01,0,.01l-5.16,1.6c-.17.05-.35-.02-.44-.17h0S.06,68.6.06,68.6c-.11-.18-.05-.42.13-.53.04-.03.09-.04.13-.05l7.72-1.33c.1-.02.2,0,.28.06l1.02.6-1.93-8.58s0-.04-.01-.05h0s0,0,0,0h0s0-.06,0-.08h0s0,0,0,0h0s0,0,0,0h0s0,0,0,0h0s0,0,0,0h0s0-.01,0-.01h0s0,0,0,0h0s0-.01,0-.01h0s0,0,0,0h0s0,0,0,0h0s0,0,0,0h0s0,0,0,0h0s0,0,0,0h0s0-.01,0-.01h0s0,0,0,0h0s.02-.03.02-.03h0s0,0,0,0h0s.01-.02.01-.02l9.89-15.31h0s0,0,0,0h0s0,0,0,0h0s0-.01,0-.01h0s0,0,0,0h0s0,0,0,0h0s0,0,0,0h0s0,0,0,0h0s0,0,0,0h0s0,0,0,0h0s0-.01,0-.01h0s0,0,0,0h0s0,0,0,0h0s0,0,0,0h0s0,0,0,0h0s0,0,0,0h0s0,0,0,0h0s0,0,0,0h0s0,0,0,0h0s0,0,0,0h0s0,0,0,0h0s0,0,0,0h0s0,0,0,0h0s0,0,0,0h0s0,0,0,0h0s0,0,0,0h0s0,0,0,0h0s0,0,0,0h0s0,0,0,0h.02s0,0,0,0h0s0,0,0,0h0s0,0,0,0h.03s0-.01,0-.01h0s0,0,0,0h0s19.48-4.79,19.48-4.79h0s0,0,0,0h0s0,0,0,0h0s0,0,0,0h0s0,0,0,0h0s0,0,0,0h0s0,0,0,0h0s0,0,0,0h0s0,0,0,0h0s0,0,0,0h0s0,0,0,0h0s0,0,0,0h0s0,0,0,0h0s0,0,0,0h0s0,0,0,0h.04s0,0,0,0h0s0,0,0,0h.02s0,0,0,0h0s0,0,0,0h0s0,0,0,0h0s0,0,0,0h0s0,0,0,0h0s0,0,0,0l13.24,2.79,2.55-1.09.35-3.13h0c0-.07.04-.14.08-.2l2.58-3.17-10.66-14.01c-.04-.05-.07-.12-.08-.19h0s0-.01,0-.01l-1.81-15.65h0c-.01-.11.02-.23.11-.32.15-.15.4-.15.55,0l10.95,10.84h0s0,0,0,0h0s0,0,0,0h0s0,0,0,0h0s0,0,0,0h0s0,0,0,0h0s0,0,0,0h0s0,.01,0,.01h0s0,.01,0,.01h0s0,0,0,0h0s0,0,0,0h0s0,0,0,0h0s0,0,0,0h0s0,0,0,0h0s0,0,0,0h0s0,0,0,0h0s0,0,0,0h0s0,0,0,0h0s0,0,0,0h0s0,.01,0,.01h0s0,0,0,0h0s0,0,0,0h0s0,0,0,0h0s0,0,0,0h0s3.75,9.88,3.75,9.88l-1.94-9.14h0s0,0,0,0h0s0,0,0,0h0s0,0,0,0h0s0,0,0,0h0s0,0,0,0h0s0,0,0,0h0s0,0,0,0h0v-.02h0v-.02h0v-.02h0s0,0,0,0h0s0,0,0,0h0s0,0,0,0h0s0,0,0,0h0s0,0,0,0h0s0,0,0,0h0s0,0,0,0h0s0,0,0,0h0s0,0,0,0h0s0,0,0,0h0s0,0,0,0h0s0,0,0,0h0S61.05.3,61.05.3c.03-.12.12-.23.24-.28.2-.08.42.03.5.23l4.89,12.97c.03.06.04.13.03.2l-1,18.66,5.07,2.43c.07.03.13.08.17.14l.02.04h0s4.21,8.09,4.21,8.09c.06.11.06.24,0,.35l-2.07,4.82h0s0,0,0,0h0s0,0,0,0h0s0,0,0,0h0s0,.01,0,.01h0s0,0,0,0h0s0,0,0,0h0s0,0,0,0h0s0,0,0,0h0s0,.01,0,.01h0s0,.01,0,.01h0s0,0,0,0h0s0,0,0,0h0s0,.01,0,.01h0s0,0,0,0h0s0,0,0,0h0s0,0,0,0h0s0,0,0,0h0s0,0,0,0h0s0,0,0,0h0s0,0,0,0h0s0,0,0,0h0s0,0,0,0h0s0,0,0,0h0s0,0,0,0h0s0,0,0,0h0s0,0,0,0h0s0,0,0,0h0s0,0,0,0h0s0,0,0,0h0s0,0,0,0h0s0,0,0,0h0s0,0,0,0h0s0,0,0,0h0s0,0,0,0h0s0,0,0,0h0s0,0,0,0h0s0,0,0,0h0s0,0,0,0h0s0,0,0,0h0s0,0,0,0h0s0,0,0,0h0s0,0,0,0h0s0,0,0,0h0s-5.54,1.78-5.54,1.78l-.4,4.29c0,.08-.03.16-.07.22l-6.75,10.94,3.49,9.38,2,.64h0c.09.03.17.09.22.18l1.48,2.53c.04.06.07.14.07.22,0,.21-.17.39-.39.39h-3.57c-.09,0-.19-.04-.26-.1l-2.02-1.86h0s-.02-.02-.04-.04l-6.75-8.12.85,6.24,1.62.86c.08.04.14.1.18.18l1.05,2.26c.03.06.05.12.05.19,0,.21-.17.39-.39.39h-4.2Zm.58-.78h3.02l-.75-1.62-1.32-.7-.95,2.32h0Zm.36-2.91l-1.05-7.64s0-.03,0-.04l-.42-5.32-7.5,6.27,6.36,7.6,1.56,1.72,1.06-2.58h0Zm0-7.53l7.23,8.69,1.9,1.75h2.74l-1.07-1.84-2.04-.65c-.13-.04-.22-.14-.25-.26l-3.48-9.37-5.02,1.67h0Zm-34.06,10.44h18.97l4.29-2.98-10.57-3.03-12.68,6.01h0Zm20.32,0h4.91l-1.24-2.55-3.67,2.55h0Zm-7.87-6.76l-14.08,6.68-1.02-1.14.34-2.23,4.76-12.65,12.06,7.89-2.06,1.46h0Zm3.24-1.94l2.14-10.21,11.47-7.82,3.17,9.9-8.09,6.76-8.69,1.36h0Zm29.06-40.59l.75-14.09-2.49,3.21,1.74,10.88h0Zm.77-15.37l-4.4-11.68-3.64,13.03,5.02,2.53,3.03-3.89h0Zm-7.96,2.27l2.8,13.2,1.37,2.41,2.74.63-2.22-13.87-4.69-2.37h0Zm1.45,11.85l-4.55-11.99-2.06,5.55,6.61,6.43h0Zm-5-12.99l-10-9.91,1.65,14.3,6.06,1.79,2.29-6.19h0Zm-7.68,5.4l9.97,13.1,4.62-1.62-1.23-2.16-7.93-7.72-5.43-1.61h0Zm9.91,14.08l-2.47,3.04-.31,2.76,9.57-1.01-6.79-4.79h0Zm-3.11,6.61l-2.6,1.11-.59,8.46,11.71-3.6,1.92-7.07-10.45,1.11h0Zm-3.38,1.15l-.6,8.74-11.61,7.91-5.77-5.67,5.27-13.66,12.71,2.68h0Zm-13.58-2.58l-5.04,13.07-12.87-8.66,17.91-4.4h0Zm-18.99,5.17l4.56,16.51-13.67-2.4,9.11-14.11h0Zm-9.25,14.87l13.82,2.43-4.67,12.41-2.37-.4-4.8-5.62-1.98-8.81h0Zm.3,12.6l.88-3.42-1.44-.84-6.35,1.09,6.91,3.17h0Zm-7.22-2.47l2.5,4.15,3.91-1.21-6.4-2.94h0Zm72.8-25.71l-2.28.67.91,2.52,1.37-3.19h0Zm-1.9,4l-1.21-3.34-6.37-4.61-1.91,7,4.24,2.63,5.25-1.69h0Zm-.81-4.01l2.83-.83-3.79-7.29-5.35,3.55,6.31,4.57h0Zm-6.99-5.05l5.39-3.58-4.67-2.24-3.31-.77-4.51,1.58,7.1,5h0Zm-2.81,8.9l-11.29,3.47,3.08,9.62,5.15-5.83,3.06-7.27h0Zm-7.97,14l.43,5.41,5.3-1.77,6.39-10.35-6.7.56-5.43,6.14h0Zm5.85-6.96l6.65-.56.37-4.01-4.04-2.51-2.98,7.08Z"/>
  </g>
</svg>